<svg xmlns="http://www.w3.org/2000/svg" viewBox="0 0 512 512" role="img" aria-labelledby="title desc">
  <title id="title">Logo AASIAM</title>
  <desc id="desc">Marca provisoria da AASIAM em preto e verde.</desc>
  <defs>
    <radialGradient id="core" cx="50%" cy="42%" r="62%">
      <stop offset="0" stop-color="#145c35"/>
      <stop offset="0.58" stop-color="#08140f"/>
      <stop offset="1" stop-color="#010302"/>
    </radialGradient>
    <linearGradient id="green" x1="0" x2="1" y1="0" y2="1">
      <stop offset="0" stop-color="#57ff9d"/>
      <stop offset="1" stop-color="#0d7d45"/>
    </linearGradient>
  </defs>
  <rect width="512" height="512" fill="#010302"/>
  <circle cx="256" cy="238" r="210" fill="url(#core)" stroke="#f5fff8" stroke-width="14"/>
  <circle cx="256" cy="238" r="168" fill="none" stroke="#57ff9d" stroke-opacity=".3" stroke-width="4"/>
  <g fill="#57ff9d" opacity=".24" font-family="Consolas, monospace" font-size="24">
    <text x="102" y="168">0101 1100 0011</text>
    <text x="90" y="210">1001 0110 0101</text>
    <text x="112" y="252">0010 1011 0111</text>
    <text x="92" y="294">1110 0100 1001</text>
  </g>
  <path d="M202 137h96l54 58v111l-54 58h-96l-54-58V195z" fill="url(#green)" stroke="#f5fff8" stroke-width="10"/>
  <path d="M182 214h148M182 289h148M226 161v174M286 161v174" stroke="#042314" stroke-width="16" stroke-linecap="round" opacity=".5"/>
  <rect x="196" y="196" width="120" height="96" rx="18" fill="#f5fff8"/>
  <text x="256" y="262" text-anchor="middle" fill="#0b5d33" font-family="Arial Black, Arial, sans-serif" font-size="72" font-weight="900">SI</text>
  <path d="M86 370h340l34 54H52z" fill="#f5fff8"/>
  <text x="256" y="414" text-anchor="middle" fill="#050806" font-family="Arial Black, Arial, sans-serif" font-size="58" font-weight="900">AASIAM</text>
  <text x="256" y="78" text-anchor="middle" fill="#f5fff8" font-family="Arial Black, Arial, sans-serif" font-size="28" font-weight="900">ATLETICA DE SISTEMAS</text>
</svg>
